<svg width="33" height="33" viewBox="0 0 33 33" fill="none" xmlns="http://www.w3.org/2000/svg">
<g clip-path="url(#clip0_2028_1191)">
<path d="M30.5845 3.00003H5.99998V3.21525L5.69236 2.16063C5.32175 0.888399 4.13747 0 2.8125 0H0.750024C0.335461 0 0 0.335461 0 0.750024C0 1.16459 0.335461 1.50005 0.750024 1.50005H2.8125C3.47534 1.50005 4.06716 1.94393 4.25243 2.5804L8.92091 18.586L6.5288 21.5758C6.1875 22.0028 5.99998 22.5382 5.99998 23.0845C5.99998 24.4168 7.08322 25.5 8.4155 25.5H29.25C29.6646 25.5 30 25.1646 30 24.75C30 24.3355 29.6646 24 29.25 24H8.4155C7.91086 24 7.49996 23.5891 7.49996 23.0845C7.49996 22.8772 7.57097 22.6735 7.70063 22.5125L10.1109 19.5H24.8217C25.9782 19.5 27.0439 18.8239 27.5369 17.7773L32.7708 6.6555C32.9209 6.33544 33 5.98022 33 5.62789V5.41547C33 4.08326 31.9168 3.00003 30.5845 3.00003ZM31.5 5.62796C31.5 5.76197 31.47 5.89676 31.4128 6.01763L26.1797 17.1387C25.9329 17.6617 25.4004 18 24.8217 18H10.3125L6.37475 4.5H30.5845C31.0891 4.5 31.5 4.91091 31.5 5.41554V5.62796Z" fill="#EEE8F3"/>
<path d="M9.00051 27.0002C7.34599 27.0002 6.00049 28.3456 6.00049 30.0002C6.00049 31.6548 7.34592 33.0003 9.00051 33.0003C10.6551 33.0003 12.0005 31.6548 12.0005 30.0002C12.0005 28.3456 10.655 27.0002 9.00051 27.0002ZM9.00051 31.5002C8.17364 31.5002 7.50054 30.8271 7.50054 30.0002C7.50054 29.1734 8.17364 28.5003 9.00051 28.5003C9.82739 28.5003 10.5005 29.1734 10.5005 30.0002C10.5005 30.8271 9.82739 31.5002 9.00051 31.5002Z" fill="#EEE8F3"/>
<path d="M27.0025 27.0002C25.3479 27.0002 24.0024 28.3456 24.0024 30.0002C24.0024 31.6548 25.3479 33.0003 27.0025 33.0003C28.6571 33.0003 30.0025 31.6548 30.0025 30.0002C30.0025 28.3456 28.657 27.0002 27.0025 27.0002ZM27.0025 31.5002C26.1756 31.5002 25.5025 30.8271 25.5025 30.0002C25.5025 29.1734 26.1756 28.5003 27.0025 28.5003C27.8293 28.5003 28.5024 29.1734 28.5024 30.0002C28.5024 30.8271 27.8293 31.5002 27.0025 31.5002Z" fill="#EEE8F3"/>
</g>
<defs>
<clipPath id="clip0_2028_1191">
<rect width="33" height="33" fill="white"/>
</clipPath>
</defs>
</svg>
