<svg width="117" height="37" viewBox="0 0 117 37" fill="none" xmlns="http://www.w3.org/2000/svg">
<path d="M25.128 28H19.188L15.66 16.84H15.588L12.132 28H6.192L0 10.072H6.372L9.468 21.412H9.576L12.78 10.072H18.72L22.032 21.412H22.104L25.236 10.072H31.356L25.128 28Z" fill="#9437FF"/>
<path d="M40.0714 4.348C40.0714 4.804 39.9754 5.236 39.7834 5.644C39.6154 6.028 39.3754 6.364 39.0634 6.652C38.7754 6.94 38.4154 7.168 37.9834 7.336C37.5754 7.504 37.1434 7.588 36.6874 7.588C35.7274 7.588 34.9234 7.276 34.2754 6.652C33.6274 6.004 33.3034 5.236 33.3034 4.348C33.3034 3.916 33.3874 3.508 33.5554 3.124C33.7234 2.716 33.9634 2.368 34.2754 2.08C34.5874 1.792 34.9474 1.564 35.3554 1.396C35.7634 1.204 36.2074 1.108 36.6874 1.108C37.1434 1.108 37.5754 1.192 37.9834 1.36C38.4154 1.528 38.7754 1.756 39.0634 2.044C39.3754 2.332 39.6154 2.68 39.7834 3.088C39.9754 3.472 40.0714 3.892 40.0714 4.348ZM33.7354 28V10.072H39.6394V28H33.7354Z" fill="#9437FF"/>
<path d="M56.0877 28V18.208C56.0877 17.704 56.0397 17.224 55.9437 16.768C55.8717 16.312 55.7397 15.916 55.5477 15.58C55.3557 15.22 55.0797 14.944 54.7197 14.752C54.3837 14.536 53.9517 14.428 53.4237 14.428C52.8957 14.428 52.4277 14.536 52.0197 14.752C51.6357 14.944 51.3117 15.22 51.0477 15.58C50.7837 15.94 50.5797 16.36 50.4357 16.84C50.3157 17.296 50.2557 17.776 50.2557 18.28V28H44.3157V10.072H50.0397V12.556H50.1117C50.3277 12.172 50.6037 11.8 50.9397 11.44C51.2997 11.056 51.7077 10.732 52.1637 10.468C52.6437 10.204 53.1597 9.988 53.7117 9.82C54.2637 9.652 54.8517 9.568 55.4757 9.568C56.6757 9.568 57.6957 9.784 58.5357 10.216C59.3757 10.648 60.0477 11.212 60.5517 11.908C61.0797 12.58 61.4517 13.36 61.6677 14.248C61.9077 15.136 62.0277 16.024 62.0277 16.912V28H56.0877Z" fill="#9437FF"/>
<path d="M78.8473 16.984C78.8473 16.048 78.5473 15.244 77.9473 14.572C77.3713 13.9 76.4953 13.564 75.3193 13.564C74.7433 13.564 74.2153 13.66 73.7353 13.852C73.2553 14.02 72.8353 14.26 72.4753 14.572C72.1153 14.884 71.8273 15.256 71.6113 15.688C71.3953 16.096 71.2753 16.528 71.2513 16.984H78.8473ZM84.2833 19.252C84.2833 19.492 84.2833 19.732 84.2833 19.972C84.2833 20.212 84.2713 20.44 84.2473 20.656H71.2513C71.2993 21.16 71.4433 21.616 71.6833 22.024C71.9473 22.432 72.2713 22.792 72.6553 23.104C73.0633 23.392 73.5073 23.62 73.9873 23.788C74.4913 23.956 75.0073 24.04 75.5353 24.04C76.4713 24.04 77.2633 23.872 77.9113 23.536C78.5593 23.176 79.0873 22.72 79.4953 22.168L83.5993 24.76C82.7593 25.984 81.6433 26.932 80.2513 27.604C78.8833 28.252 77.2873 28.576 75.4633 28.576C74.1193 28.576 72.8473 28.372 71.6473 27.964C70.4473 27.532 69.3913 26.92 68.4793 26.128C67.5913 25.312 66.8833 24.316 66.3553 23.14C65.8513 21.964 65.5993 20.62 65.5993 19.108C65.5993 17.644 65.8513 16.324 66.3553 15.148C66.8593 13.948 67.5433 12.94 68.4073 12.124C69.2713 11.284 70.2913 10.636 71.4673 10.18C72.6433 9.724 73.9153 9.496 75.2833 9.496C76.6033 9.496 77.8153 9.724 78.9193 10.18C80.0233 10.612 80.9713 11.248 81.7633 12.088C82.5553 12.928 83.1673 13.948 83.5993 15.148C84.0553 16.348 84.2833 17.716 84.2833 19.252Z" fill="#9437FF"/>
<path d="M88.0166 28V0.783997H93.9926V28H88.0166Z" fill="#EEE8F3"/>
<path d="M108.783 30.7C108.423 31.636 108.015 32.464 107.559 33.184C107.127 33.928 106.599 34.552 105.975 35.056C105.375 35.584 104.655 35.98 103.815 36.244C102.999 36.508 102.027 36.64 100.899 36.64C100.347 36.64 99.7713 36.604 99.1713 36.532C98.5953 36.46 98.0913 36.364 97.6593 36.244L98.3073 31.276C98.5953 31.372 98.9073 31.444 99.2433 31.492C99.6033 31.564 99.9273 31.6 100.215 31.6C101.127 31.6 101.787 31.384 102.195 30.952C102.603 30.544 102.951 29.956 103.239 29.188L103.815 27.712L96.3273 10.072H102.879L106.875 21.592H106.983L110.547 10.072H116.811L108.783 30.7Z" fill="#EEE8F3"/>
</svg>
